<svg viewBox="0 0 12 14" fill="none" xmlns="http://www.w3.org/2000/svg">
<path d="M5.14286 6.125H1.07143C0.900932 6.125 0.737419 6.19414 0.61686 6.31721C0.496301 6.44028 0.428571 6.6072 0.428571 6.78125V8.09375C0.428571 8.2678 0.496301 8.43472 0.61686 8.55779C0.737419 8.68086 0.900932 8.75 1.07143 8.75H2.4225L0.216429 11.2837C0.076987 11.4439 -2.37541e-05 11.6507 5.49616e-09 11.865V13.125C5.49616e-09 13.3571 0.0903059 13.5796 0.251051 13.7437C0.411797 13.9078 0.629814 14 0.857143 14H4.92857C5.09907 14 5.26258 13.9309 5.38314 13.8078C5.5037 13.6847 5.57143 13.5178 5.57143 13.3438V12.0312C5.57143 11.8572 5.5037 11.6903 5.38314 11.5672C5.26258 11.4441 5.09907 11.375 4.92857 11.375H3.5775L5.78357 8.84133C5.92301 8.68114 6.00002 8.47429 6 8.26V7C6 6.76794 5.90969 6.54538 5.74895 6.38128C5.5882 6.21719 5.37019 6.125 5.14286 6.125ZM5.14286 5.25H7.71429C7.82795 5.25 7.93696 5.20391 8.01733 5.12186C8.0977 5.03981 8.14286 4.92853 8.14286 4.8125V3.9375C8.14286 3.82147 8.0977 3.71019 8.01733 3.62814C7.93696 3.54609 7.82795 3.5 7.71429 3.5H6.78348L8.32045 1.93102C8.48112 1.76696 8.57139 1.54448 8.57143 1.3125V0.875C8.57143 0.642936 8.48112 0.420376 8.32038 0.256282C8.15963 0.0921872 7.94161 0 7.71429 0L4.92857 0C4.81491 0 4.7059 0.0460936 4.62553 0.128141C4.54515 0.210188 4.5 0.321468 4.5 0.4375V1.3125C4.5 1.42853 4.54515 1.53981 4.62553 1.62186C4.7059 1.70391 4.81491 1.75 4.92857 1.75H6.07366L4.5367 3.31898C4.37602 3.48304 4.28575 3.70552 4.28571 3.9375V4.375C4.28571 4.60706 4.37602 4.82962 4.53677 4.99372C4.69751 5.15781 4.91553 5.25 5.14286 5.25ZM12 7.4375V7C12 6.76794 11.9097 6.54538 11.7489 6.38128C11.5882 6.21719 11.3702 6.125 11.1429 6.125H8.57143C8.45776 6.125 8.34875 6.17109 8.26838 6.25314C8.18801 6.33519 8.14286 6.44647 8.14286 6.5625V7.4375C8.14286 7.55353 8.18801 7.66481 8.26838 7.74686C8.34875 7.82891 8.45776 7.875 8.57143 7.875H9.50223L7.96527 9.44398C7.8046 9.60804 7.71432 9.83052 7.71429 10.0625V10.5C7.71429 10.7321 7.80459 10.9546 7.96534 11.1187C8.12608 11.2828 8.3441 11.375 8.57143 11.375H11.3571C11.4708 11.375 11.5798 11.3289 11.6602 11.2469C11.7406 11.1648 11.7857 11.0535 11.7857 10.9375V10.0625C11.7857 9.94647 11.7406 9.83519 11.6602 9.75314C11.5798 9.67109 11.4708 9.625 11.3571 9.625H10.2121L11.749 8.05602C11.9097 7.89196 12 7.66948 12 7.4375Z" fill="#A3AD98"/>
</svg>
