<svg viewBox="0 0 14 14" fill="none" xmlns="http://www.w3.org/2000/svg">
<path d="M7.53674 4.17027C7.53634 4.17036 7.53601 4.17036 7.53561 4.17036C7.53593 4.17036 7.53642 4.17036 7.53674 4.17027Z" fill="#313230"/>
<path d="M11.1914 2.33939C9.39462 2.15463 8.25046 3.02036 7.67465 3.63994C7.70473 3.80767 7.72674 3.97821 7.73899 4.15124C8.08051 4.1257 8.42059 4.133 8.76236 4.17388C9.4398 3.15672 10.4842 2.75373 11.2053 2.59412C11.348 2.56254 11.3368 2.35432 11.1914 2.33939Z" fill="#313230"/>
<path d="M10.5512 2.31676C9.11889 2.36619 8.17884 3.09739 7.67465 3.63995C7.70476 3.80767 7.72674 3.97822 7.73899 4.15125C7.82564 4.14477 7.91219 4.14045 7.99867 4.1382C8.41096 3.48286 9.18783 2.6366 10.5512 2.31676Z" fill="#313230"/>
<path d="M6.25483 4.15085C6.26812 3.97684 6.27821 3.7906 6.28313 3.59512C5.69456 2.97959 4.5625 2.15906 2.80862 2.33939C2.66323 2.35434 2.652 2.56254 2.7947 2.59412C3.51584 2.75373 4.56023 3.15672 5.23767 4.17388C5.58647 4.13215 5.92312 4.12646 6.25499 4.15088C6.25491 4.15085 6.25486 4.15085 6.25483 4.15085Z" fill="#313230"/>
<path d="M6.46151 4.17004C6.46095 4.16998 6.4604 4.16995 6.45984 4.16989C6.4604 4.16995 6.46095 4.16998 6.46151 4.17004Z" fill="#313230"/>
<path d="M3.65317 2.37076C3.62323 2.36144 3.60149 2.34435 3.58654 2.32365C3.34225 2.30746 3.08303 2.31115 2.80858 2.3394C2.66322 2.35435 2.65196 2.56255 2.79466 2.59413C3.5158 2.75374 4.56019 3.15673 5.23763 4.17389C5.47907 4.14501 5.71459 4.13377 5.94682 4.13744C5.35644 3.07617 4.35533 2.58965 3.65317 2.37076Z" fill="#313230"/>
<path d="M6.22659 4.15086C6.67295 4.18373 6.8876 4.27 7.363 4.19707C7.49608 4.17664 7.63094 4.16141 7.76728 4.15121C7.63928 2.34475 6.46722 0.803279 5.76479 0.0317768C5.69107 -0.0491879 5.56064 0.0388041 5.60865 0.137187C6.26805 1.48854 6.3101 3.05903 6.22659 4.15086Z" fill="#313230"/>
<path d="M6.7858 4.21381C6.84751 3.28191 6.81919 2.04072 6.44471 0.867455C6.2033 0.534218 5.96497 0.251648 5.76479 0.0317768C5.69107 -0.049188 5.56064 0.0388041 5.60865 0.137187C6.26805 1.48851 6.3101 3.059 6.22657 4.15083C6.45062 4.16735 6.61627 4.19729 6.7858 4.21381Z" fill="#313230"/>
<path d="M7.363 4.16885C6.7759 4.25892 6.61307 4.10812 5.83779 4.10812C3.02648 4.10812 0.747437 6.3225 0.747437 9.05405C0.747437 11.7856 3.02651 14 5.83779 14C6.10975 14 6.37671 13.9792 6.6371 13.9393C6.87787 13.9023 7.12221 13.9023 7.36297 13.9393C7.62336 13.9792 7.89029 14 8.16225 14C10.9736 14 13.2526 11.7856 13.2526 9.05408C13.2526 6.01627 10.4593 3.69386 7.363 4.16885Z" fill="#313230"/>
<path d="M1.3117 9.05405C1.3117 6.41344 3.44153 4.25635 6.12307 4.11559C6.03752 4.11096 5.94351 4.10809 5.8378 4.10809C3.02648 4.10809 0.747467 6.32247 0.747467 9.05402C0.74744 11.7856 3.02648 14 5.83777 14C5.93254 14 6.02666 13.9973 6.12015 13.9923C3.43997 13.8502 1.3117 11.6937 1.3117 9.05405Z" fill="#313230"/>
</svg>
